<?xml version="1.0" encoding="utf-8"?>
<!-- Generator: Adobe Illustrator 22.0.1, SVG Export Plug-In . SVG Version: 6.00 Build 0)  -->
<svg version="1.1" id="Layer_1" xmlns="http://www.w3.org/2000/svg" xmlns:xlink="http://www.w3.org/1999/xlink" x="0px" y="0px"
	 viewBox="0 0 512 512" style="enable-background:new 0 0 512 512;" xml:space="preserve">
<style type="text/css">
	.st0{fill:#231F20;}
</style>
<g>
	<g>
		<path class="st0" d="M472.1,81.1c-27-27.6-63-42.8-101.5-42.8c-37.9,0-73.6,14.8-100.4,41.6l-13.8,13.9L242.4,80
			C215.6,53.1,179.9,38.4,142,38.4c-37.9,0-73.6,14.8-100.4,41.6C14.8,106.8,0,142.4,0,180.4S14.8,254,41.6,280.8l177.5,177.5
			c10.3,10.3,23.7,15.4,37.2,15.4c13.5,0,26.9-5.1,37.2-15.4l176.3-176.3C525.2,226.6,526.2,136.5,472.1,81.1z M451.2,263.3
			L274.8,439.7c-10.3,10.2-26.9,10.2-37.2,0L60.2,262.2c-21.9-21.9-33.9-50.9-33.9-81.8s12-60,33.9-81.8
			C82,76.7,111.1,64.7,142,64.7c30.9,0,59.9,12,81.8,33.9l13.9,13.9l-21.2,21.2c-5.1,5.1-5.1,13.5,0,18.6c2.6,2.6,5.9,3.8,9.3,3.8
			c3.4,0,6.7-1.3,9.3-3.9l53.7-53.7c21.9-21.9,50.9-33.9,81.8-33.9c31.4,0,60.8,12.4,82.7,34.8C497.4,144.6,496.4,218.1,451.2,263.3
			z"/>
	</g>
</g>
<g>
	<g>
		<path class="st0" d="M466.3,174.4c-1.4-23.4-11.4-45.4-27.9-61.9c-11.7-11.7-26.2-20.2-42-24.6c-7-1.9-14.2,2.1-16.2,9.1
			c-1.9,7,2.1,14.2,9.1,16.2c11.4,3.2,22,9.4,30.5,17.9c12,12,19.2,28,20.2,44.9c0.4,7,6.2,12.3,13.1,12.3c0.3,0,0.5,0,0.8,0
			C461.2,187.9,466.7,181.6,466.3,174.4z"/>
	</g>
</g>
</svg>
