<?xml version="1.0" encoding="utf-8"?>
<!-- Generator: Adobe Illustrator 22.0.1, SVG Export Plug-In . SVG Version: 6.00 Build 0)  -->
<svg version="1.1" id="Layer_1" xmlns="http://www.w3.org/2000/svg" xmlns:xlink="http://www.w3.org/1999/xlink" x="0px" y="0px"
	 viewBox="0 0 128 128" style="enable-background:new 0 0 128 128;" xml:space="preserve">
<style type="text/css">
	.st0{fill:none;}
	.st1{stroke:#000000;stroke-width:1.3464;stroke-miterlimit:10;}
</style>
<g>
	<path class="st0" d="M0,128V0h128v128H0z"/>
	<g>
		<g id="surface1">
			<path class="st1" d="M68.5,3.6c-23.8,0-43.2,18.1-43.2,40.2c0,10.5,6.3,18.4,12.4,26c4.9,6.1,9.5,11.9,10.3,18.5v14.8
				c0,7.5,5.9,13.6,13.6,14.7v2.3c0,2.3,2,4.2,4.5,4.2h4.5c2.5,0,4.5-1.9,4.5-4.2v-2.3c7.7-1,13.6-7.2,13.6-14.7V90.3
				c0-7.4,5.1-13.7,10.4-20.4c6.1-7.6,12.4-15.5,12.4-26C111.7,21.7,92.4,3.6,68.5,3.6z M68.5,7.9c21.3,0,38.6,16.2,38.6,36
				c0,9.1-5.8,16.4-11.4,23.5c-5.1,6.4-10.3,13-11.2,20.9H70.8V82c0-1.2-1-2.1-2.3-2.1s-2.3,1-2.3,2.1v6.2H52.7
				c-0.8-7.9-6.1-14.5-11.3-20.9C35.8,60.3,29.9,53,29.9,43.9C29.9,24,47.2,7.9,68.5,7.9L68.5,7.9z M59.5,50.2
				c-0.6,0-1.2,0.2-1.6,0.6c-0.9,0.8-0.9,2.2,0,3l4.5,4.2c0.4,0.4,1,0.6,1.6,0.6c0.6,0,1.2-0.2,1.6-0.6c0.9-0.8,0.9-2.2,0-3
				l-4.5-4.2C60.6,50.4,60,50.2,59.5,50.2z M77.6,50.2c-0.6,0-1.2,0.2-1.6,0.6l-9.1,8.5c-0.4,0.4-0.7,0.9-0.7,1.5v12.7
				c0,1.2,1,2.1,2.3,2.1s2.3-1,2.3-2.1V61.7l8.4-7.9c0.9-0.8,0.9-2.2,0-3C78.8,50.4,78.2,50.2,77.6,50.2z M52.6,92.6h31.8V95
				l-31.8,3.7V92.6z M84.5,99.2v4c0,0.1,0,0.2,0,0.3l-23.1,2.7c-1.2,0.1-2.1,1.2-2,2.4c0.1,1.1,1.1,1.9,2.2,1.9c0.1,0,0.2,0,0.3,0
				l21.3-2.5c-1.9,3.5-5.7,5.9-10.2,5.9H64c-6.3,0-11.4-4.7-11.4-10.6v-0.2L84.5,99.2z M66.3,118h4.5v2.1h-4.5V118z"/>
		</g>
	</g>
</g>
</svg>
