<?xml version="1.0" encoding="utf-8"?>
<!-- Generator: Adobe Illustrator 22.0.1, SVG Export Plug-In . SVG Version: 6.00 Build 0)  -->
<svg version="1.1" id="Layer_1" xmlns="http://www.w3.org/2000/svg" xmlns:xlink="http://www.w3.org/1999/xlink" x="0px" y="0px"
	 viewBox="0 0 512 512" style="enable-background:new 0 0 512 512;" xml:space="preserve">
<style type="text/css">
	.st0{fill:#231F20;}
</style>
<path class="st0" d="M437,75C388.7,26.6,324.4,0,256,0c-52,0-102.1,15.5-144.9,44.9c-4.6,3.1-5.7,9.4-2.6,13.9
	c3.1,4.6,9.4,5.7,13.9,2.6C161.9,34.3,208,20,256,20c130.1,0,236,105.9,236,236S386.1,492,256,492S20,386.1,20,256
	c0-48,14.3-94.1,41.4-133.5c3.1-4.6,2-10.8-2.6-13.9c-4.5-3.1-10.8-2-13.9,2.6C15.5,153.9,0,204,0,256c0,68.4,26.6,132.7,75,181
	s112.6,75,181,75c68.4,0,132.7-26.6,181-75s75-112.6,75-181S485.4,123.3,437,75z"/>
<path class="st0" d="M82,92.1c2.7,0,5.4-1.1,7.4-3.3c3.7-4.1,3.4-10.4-0.7-14.1s-10.4-3.4-14.1,0.7l0,0c-3.7,4.1-3.4,10.4,0.7,14.1
	C77.2,91.2,79.6,92.1,82,92.1z"/>
<path class="st0" d="M310.5,172.1c3.1-11.5,13.6-19.5,25.5-19.5c11.9,0,22.4,8,25.5,19.5c1.2,4.5,5.2,7.4,9.7,7.4
	c0.9,0,1.7-0.1,2.6-0.3c5.3-1.4,8.5-6.9,7.1-12.2c-5.4-20.2-23.8-34.4-44.8-34.4s-39.4,14.1-44.8,34.4c-1.4,5.3,1.7,10.8,7.1,12.2
	C303.6,180.6,309.1,177.4,310.5,172.1z"/>
<path class="st0" d="M150.5,172.1c3.1-11.5,13.6-19.5,25.5-19.5c11.9,0,22.4,8,25.5,19.5c1.2,4.5,5.2,7.4,9.7,7.4
	c0.9,0,1.7-0.1,2.6-0.3c5.3-1.4,8.5-6.9,7.1-12.2c-5.4-20.2-23.8-34.4-44.8-34.4s-39.4,14.1-44.8,34.4c-1.4,5.3,1.7,10.8,7.1,12.2
	C143.6,180.6,149.1,177.4,150.5,172.1z"/>
<path class="st0" d="M119.6,277.8c0,29.7,13.3,59.4,36.5,81.6c25.4,24.3,60.9,37.7,99.8,37.7c40.1,0,74.6-12.3,99.7-35.6
	c23.6-21.9,36.7-51.6,36.7-83.7c0-5.5-4.5-10-10-10H129.6C124.1,267.8,119.6,272.2,119.6,277.8z M371.8,287.8
	c-5,45.9-44.6,89.3-115.8,89.3c-67.9,0-110.3-43.8-115.8-89.3H371.8z"/>
</svg>
